<?xml version="1.0" encoding="UTF-8" standalone="no"?>
<!DOCTYPE svg PUBLIC "-//W3C//DTD SVG 1.1//EN"
"http://www.w3.org/Graphics/SVG/1.1/DTD/svg11.dtd">
<svg viewBox="0 0 935 1210" version="1.1" xmlns="http://www.w3.org/2000/svg" xmlns:xlink="http://www.w3.org/1999/xlink">
<defs>
<clipPath id="c0"><path d="M62.3,166.7V41.3H182.9V166.7Z"/></clipPath>
<clipPath id="c1"><path d="M744.9,165.8V41.3H869.6V165.8Z"/></clipPath>
<style type="text/css"><![CDATA[
.g0{
fill: none;
stroke: #000000;
stroke-width: 0.763;
stroke-linecap: butt;
stroke-linejoin: miter;
}
.g1{
fill: none;
stroke: #000000;
stroke-width: 1.527;
stroke-linecap: butt;
stroke-linejoin: round;
}
]]></style>
</defs>
<image clip-path="url(#c0)" preserveAspectRatio="none" x="62" y="41" width="121" height="126" xlink:href="img/1.jpg"/>
<path d="M511.5,180.4h15.3m22.9,0h36.7m19.1,0h30.7" class="g0"/>
<image clip-path="url(#c1)" preserveAspectRatio="none" x="745" y="41" width="124" height="125" xlink:href="img/2.jpg"/>
<path d="M20.9,335.7H914.2M20.9,370H914.2M21.7,334.9v35.9M913.5,334.9v35.9M20.9,391.7H914.2M20.9,426.1H914.2M21.7,391v35.9M913.5,391v35.9M20.9,439.7H914.2M20.9,690.7H914.2M21.7,438.9V691.5M913.5,438.9V691.5M615.4,924.3H914.2M21.7,974.7H914.2M615.4,1128.6H914.2M616.2,923.5v205.8M913.5,923.5v205.8" class="g1"/>
</svg>